<svg width="138.46mm" height="138.46mm" version="1.1" viewBox="0 0 138.46 138.46" xmlns="http://www.w3.org/2000/svg" xmlns:xlink="http://www.w3.org/1999/xlink">
 <defs>
  <linearGradient id="linearGradient20265" x1="35.411" x2="172.11" y1="129.62" y2="129.62" gradientUnits="userSpaceOnUse">
   <stop stop-color="#666" offset="0"/>
  </linearGradient>
 </defs>
 <g transform="translate(-34.528 -60.384)">
  <rect x="35.411" y="61.266" width="136.7" height="136.7" fill="#fff" fill-rule="evenodd" stroke="url(#linearGradient20265)" stroke-width="1.765"/>
  <g transform="translate(-.1202)" fill="#666">
   <path d="m43.246 142.53h42.293l-14.472 18.471v30.28l-13.35-2.5e-4h-18.378l6.6757-13.35h11.702v-16.93z" stroke-width=".7236"/>
   <g transform="matrix(2.7349 0 0 2.7349 -96.032 -229.2)" stroke-width=".52679" aria-label="OB">
    <path d="m73.156 140.67q-1.8108 0-2.8088 1.3375-0.99802 1.3376-0.99802 3.7657 0 2.4179 0.99802 3.7554 0.99802 1.3376 2.8088 1.3376 1.8211 0 2.8191-1.3376 0.99802-1.3376 0.99802-3.7554 0-2.4282-0.99802-3.7657-0.99802-1.3375-2.8191-1.3375zm0-2.8706q3.704 0 5.8029 2.1195 2.0989 2.1195 2.0989 5.8543 0 3.7246-2.0989 5.844t-5.8029 2.1195q-3.6937 0-5.8029-2.1195-2.0989-2.1195-2.0989-5.844 0-3.7348 2.0989-5.8543 2.1092-2.1195 5.8029-2.1195z"/>
    <path d="m90.205 144.03q0.93628 0 1.4199-0.41155 0.48358-0.41155 0.48358-1.2141 0-0.79224-0.48358-1.2038-0.48357-0.42184-1.4199-0.42184h-2.1915v3.2513zm0.13376 6.7186q1.1935 0 1.7903-0.50415 0.60704-0.50415 0.60704-1.5228 0-0.99801-0.59675-1.4919-0.59675-0.50416-1.8005-0.50416h-2.3253v4.0229zm3.6834-5.5251q1.2758 0.37039 1.9755 1.3684 0.69964 0.99801 0.69964 2.4487 0 2.2224-1.5022 3.313-1.5022 1.0906-4.5682 1.0906h-6.5746v-15.361h5.9469q3.1998 0 4.63 0.96714 1.4404 0.96715 1.4404 3.0969 0 1.1215-0.52473 1.9137-0.52473 0.78195-1.5227 1.1626z"/>
   </g>
  </g>
  <g fill="#666">
   <rect x="46.283" y="72.694" width="114.96" height="4.0601" stroke-width=".26458"/>
   <rect x="46.283" y="85.957" width="114.96" height="4.0601" stroke-width=".26458"/>
   <rect x="46.283" y="99.22" width="77.021" height="4.0601" stroke-width=".21657"/>
   <rect x="46.283" y="112.48" width="51.604" height="4.0601" stroke-width=".17727"/>
   <rect x="46.283" y="125.75" width="34.575" height="4.0601" stroke-width=".1451"/>
  </g>
 </g>
</svg>
